<?xml version="1.0" encoding="UTF-8" standalone="no"?>
<svg width="32" height="32" viewBox="0 0 32 32" fill="none" xmlns="http://www.w3.org/2000/svg">
  <!-- Background hexagon -->
  <path d="M16 2.5L28.5 9.5V23.5L16 30.5L3.5 23.5V9.5L16 2.5Z" fill="#2E1A47" stroke="#00B2C9" stroke-width="1"/>

  <!-- Abstract node network -->
  <g stroke="#25D5EC" stroke-width="0.75">
    <!-- Central node -->
    <circle cx="16" cy="16" r="2.5" fill="#00B2C9" />

    <!-- Outer nodes -->
    <circle cx="11" cy="12.5" r="1.5" fill="#2E1A47" />
    <circle cx="21" cy="12.5" r="1.5" fill="#2E1A47" />
    <circle cx="11" cy="19.5" r="1.5" fill="#2E1A47" />
    <circle cx="21" cy="19.5" r="1.5" fill="#2E1A47" />
    <circle cx="16" cy="8.5" r="1.5" fill="#2E1A47" />
    <circle cx="16" cy="23.5" r="1.5" fill="#2E1A47" />

    <!-- Connection lines -->
    <line x1="16" y1="13.5" x2="16" y2="10" />
    <line x1="16" y1="18.5" x2="16" y2="22" />
    <line x1="13.5" y1="16" x2="12.5" y2="14" />
    <line x1="18.5" y1="16" x2="19.5" y2="14" />
    <line x1="13.5" y1="16" x2="12.5" y2="18" />
    <line x1="18.5" y1="16" x2="19.5" y2="18" />
  </g>

  <!-- Subtle glow effect -->
  <circle cx="16" cy="16" r="8" fill="url(#glow)" fill-opacity="0.3" />

  <!-- Definitions -->
  <defs>
    <radialGradient id="glow" cx="0.5" cy="0.5" r="0.5" fx="0.5" fy="0.5">
      <stop offset="0%" stop-color="#00B2C9" stop-opacity="0.8" />
      <stop offset="100%" stop-color="#2E1A47" stop-opacity="0" />
    </radialGradient>
  </defs>
</svg>
