<?xml version="1.0" encoding="UTF-8" standalone="no"?>
<svg width="64" height="64" viewBox="0 0 64 64" fill="none" xmlns="http://www.w3.org/2000/svg">
  <!-- Background hexagon -->
  <path d="M32 5L57 19V47L32 61L7 47V19L32 5Z" fill="#2E1A47" stroke="#00B2C9" stroke-width="2"/>
  
  <!-- Abstract node network -->
  <g stroke="#25D5EC" stroke-width="1.5">
    <!-- Central node -->
    <circle cx="32" cy="32" r="6" fill="#00B2C9" />
    
    <!-- Outer nodes -->
    <circle cx="21" cy="25" r="4" fill="#2E1A47" />
    <circle cx="43" cy="25" r="4" fill="#2E1A47" />
    <circle cx="21" cy="39" r="4" fill="#2E1A47" />
    <circle cx="43" cy="39" r="4" fill="#2E1A47" />
    <circle cx="32" cy="16" r="4" fill="#2E1A47" />
    <circle cx="32" cy="48" r="4" fill="#2E1A47" />
    
    <!-- Connection lines -->
    <line x1="32" y1="26" x2="32" y2="20" />
    <line x1="32" y1="38" x2="32" y2="44" />
    <line x1="26" y1="32" x2="24" y2="28" />
    <line x1="38" y1="32" x2="40" y2="28" />
    <line x1="26" y1="32" x2="24" y2="36" />
    <line x1="38" y1="32" x2="40" y2="36" />
  </g>
  
  <!-- Subtle glow effect -->
  <circle cx="32" cy="32" r="16" fill="url(#glow)" fill-opacity="0.3" />
  
  <!-- Definitions -->
  <defs>
    <radialGradient id="glow" cx="0.5" cy="0.5" r="0.5" fx="0.5" fy="0.5">
      <stop offset="0%" stop-color="#00B2C9" stop-opacity="0.8" />
      <stop offset="100%" stop-color="#2E1A47" stop-opacity="0" />
    </radialGradient>
  </defs>
</svg>
