<?xml version="1.0" encoding="UTF-8" standalone="no"?>
<svg xmlns="http://www.w3.org/2000/svg" xmlns:xlink="http://www.w3.org/1999/xlink" width="1024" zoomAndPan="magnify" viewBox="0 0 768 767.999994" height="1024" preserveAspectRatio="xMidYMid meet" version="1.0">
  <!-- Background hexagon -->
  <path d="M384 60L688 230V570L384 740L80 570V230L384 60Z" fill="#2E1A47" stroke="#00B2C9" stroke-width="6"/>

  <!-- Abstract node network -->
  <g stroke="#25D5EC" stroke-width="4">
    <!-- Central node -->
    <circle cx="384" cy="384" r="48" fill="#00B2C9" />

    <!-- Outer nodes -->
    <circle cx="256" cy="300" r="32" fill="#2E1A47" />
    <circle cx="512" cy="300" r="32" fill="#2E1A47" />
    <circle cx="256" cy="468" r="32" fill="#2E1A47" />
    <circle cx="512" cy="468" r="32" fill="#2E1A47" />
    <circle cx="384" cy="200" r="32" fill="#2E1A47" />
    <circle cx="384" cy="568" r="32" fill="#2E1A47" />

    <!-- Connection lines -->
    <line x1="384" y1="336" x2="384" y2="232" />
    <line x1="384" y1="432" x2="384" y2="536" />
    <line x1="336" y1="384" x2="288" y2="332" />
    <line x1="432" y1="384" x2="480" y2="332" />
    <line x1="336" y1="384" x2="288" y2="436" />
    <line x1="432" y1="384" x2="480" y2="436" />

    <!-- Additional connections -->
    <line x1="256" y1="332" x2="256" y2="436" opacity="0.6" />
    <line x1="512" y1="332" x2="512" y2="436" opacity="0.6" />
  </g>

  <!-- Subtle glow effect -->
  <circle cx="384" cy="384" r="200" fill="url(#glow)" fill-opacity="0.3" />

  <!-- Definitions -->
  <defs>
    <radialGradient id="glow" cx="0.5" cy="0.5" r="0.5" fx="0.5" fy="0.5">
      <stop offset="0%" stop-color="#00B2C9" stop-opacity="0.8" />
      <stop offset="100%" stop-color="#2E1A47" stop-opacity="0" />
    </radialGradient>
  </defs>
</svg>