<?xml version="1.0" encoding="UTF-8" standalone="no"?>
<svg width="128" height="128" viewBox="0 0 128 128" fill="none" xmlns="http://www.w3.org/2000/svg">
  <!-- Hexagon background -->
  <path d="M64 8L114.784 36V92L64 120L13.2157 92V36L64 8Z" fill="#2E1A47" stroke="#00B2C9" stroke-width="2"/>
  
  <!-- Abstract node network -->
  <g stroke="#25D5EC" stroke-width="1.5">
    <!-- Central node -->
    <circle cx="64" cy="64" r="8" fill="#00B2C9" />
    
    <!-- Outer nodes -->
    <circle cx="40" cy="48" r="6" fill="#2E1A47" />
    <circle cx="88" cy="48" r="6" fill="#2E1A47" />
    <circle cx="40" cy="80" r="6" fill="#2E1A47" />
    <circle cx="88" cy="80" r="6" fill="#2E1A47" />
    <circle cx="64" cy="32" r="6" fill="#2E1A47" />
    <circle cx="64" cy="96" r="6" fill="#2E1A47" />
    
    <!-- Connection lines -->
    <line x1="64" y1="56" x2="64" y2="38" />
    <line x1="64" y1="72" x2="64" y2="90" />
    <line x1="56" y1="64" x2="46" y2="54" />
    <line x1="72" y1="64" x2="82" y2="54" />
    <line x1="56" y1="64" x2="46" y2="74" />
    <line x1="72" y1="64" x2="82" y2="74" />
    
    <!-- Additional connections -->
    <line x1="40" y1="54" x2="40" y2="74" opacity="0.6" />
    <line x1="88" y1="54" x2="88" y2="74" opacity="0.6" />
    <line x1="46" y1="48" x2="58" y2="48" opacity="0.6" />
    <line x1="70" y1="48" x2="82" y2="48" opacity="0.6" />
    <line x1="46" y1="80" x2="58" y2="80" opacity="0.6" />
    <line x1="70" y1="80" x2="82" y2="80" opacity="0.6" />
  </g>
  
  <!-- Subtle glow effect -->
  <circle cx="64" cy="64" r="40" fill="url(#glow)" fill-opacity="0.2" />
  
  <!-- Definitions -->
  <defs>
    <radialGradient id="glow" cx="0.5" cy="0.5" r="0.5" fx="0.5" fy="0.5">
      <stop offset="0%" stop-color="#00B2C9" stop-opacity="0.8" />
      <stop offset="100%" stop-color="#2E1A47" stop-opacity="0" />
    </radialGradient>
  </defs>
</svg>
