<?xml version="1.0" encoding="UTF-8" standalone="no"?>
<svg width="128" height="128" viewBox="0 0 128 128" fill="none" xmlns="http://www.w3.org/2000/svg">
  <!-- Background circle -->
  <circle cx="64" cy="64" r="60" fill="#121212" stroke="#00b0ff" stroke-width="2" />

  <!-- Cauldron shape -->
  <path d="M40 48 C40 38, 88 38, 88 48 C88 58, 96 78, 96 88 C96 98, 32 98, 32 88 C32 78, 40 58, 40 48 Z" fill="#1e1e1e" stroke="#00b0ff" stroke-width="2" />

  <!-- Cauldron rim -->
  <path d="M36 48 C36 42, 92 42, 92 48" stroke="#00e5ff" stroke-width="3" stroke-linecap="round" />

  <!-- Cauldron legs -->
  <line x1="40" y1="88" x2="36" y2="98" stroke="#00e5ff" stroke-width="2" stroke-linecap="round" />
  <line x1="88" y1="88" x2="92" y2="98" stroke="#00e5ff" stroke-width="2" stroke-linecap="round" />

  <!-- Bubbles -->
  <circle cx="50" cy="68" r="4" fill="#00e5ff" opacity="0.8">
    <animate attributeName="cy" from="68" to="58" dur="2s" repeatCount="indefinite" />
    <animate attributeName="opacity" from="0.8" to="0" dur="2s" repeatCount="indefinite" />
  </circle>
  <circle cx="64" cy="72" r="5" fill="#00b0ff" opacity="0.9">
    <animate attributeName="cy" from="72" to="60" dur="1.5s" repeatCount="indefinite" />
    <animate attributeName="opacity" from="0.9" to="0" dur="1.5s" repeatCount="indefinite" />
  </circle>
  <circle cx="78" cy="70" r="3" fill="#d500f9" opacity="0.7">
    <animate attributeName="cy" from="70" to="62" dur="1.8s" repeatCount="indefinite" />
    <animate attributeName="opacity" from="0.7" to="0" dur="1.8s" repeatCount="indefinite" />
  </circle>

  <!-- Steam -->
  <path d="M58 52 Q64 40, 70 52" stroke="#00b0ff" stroke-width="2" fill="none" opacity="0.6">
    <animate attributeName="d" values="M58 52 Q64 40, 70 52; M56 52 Q64 36, 72 52; M58 52 Q64 40, 70 52" dur="3s" repeatCount="indefinite" />
    <animate attributeName="opacity" values="0.6; 0.2; 0.6" dur="3s" repeatCount="indefinite" />
  </path>

  <!-- Glow effect -->
  <circle cx="64" cy="64" r="60" fill="url(#glow)" fill-opacity="0.2" />

  <!-- Definitions -->
  <defs>
    <radialGradient id="glow" cx="0.5" cy="0.5" r="0.5" fx="0.5" fy="0.5">
      <stop offset="0%" stop-color="#00e5ff" stop-opacity="0.8" />
      <stop offset="100%" stop-color="#121212" stop-opacity="0" />
    </radialGradient>
  </defs>
</svg>