<?xml version="1.0" encoding="UTF-8" standalone="no"?>
<svg width="180" height="180" viewBox="0 0 180 180" fill="none" xmlns="http://www.w3.org/2000/svg">
  <!-- Background -->
  <rect width="180" height="180" rx="40" fill="#2E1A47"/>
  
  <!-- Hexagon background -->
  <path d="M90 30L140 58V114L90 142L40 114V58L90 30Z" fill="#2E1A47" stroke="#00B2C9" stroke-width="3"/>
  
  <!-- Abstract node network -->
  <g stroke="#25D5EC" stroke-width="2">
    <!-- Central node -->
    <circle cx="90" cy="90" r="12" fill="#00B2C9" />
    
    <!-- Outer nodes -->
    <circle cx="60" cy="70" r="8" fill="#2E1A47" />
    <circle cx="120" cy="70" r="8" fill="#2E1A47" />
    <circle cx="60" cy="110" r="8" fill="#2E1A47" />
    <circle cx="120" cy="110" r="8" fill="#2E1A47" />
    <circle cx="90" cy="50" r="8" fill="#2E1A47" />
    <circle cx="90" cy="130" r="8" fill="#2E1A47" />
    
    <!-- Connection lines -->
    <line x1="90" y1="78" x2="90" y2="58" />
    <line x1="90" y1="102" x2="90" y2="122" />
    <line x1="78" y1="90" x2="68" y2="78" />
    <line x1="102" y1="90" x2="112" y2="78" />
    <line x1="78" y1="90" x2="68" y2="102" />
    <line x1="102" y1="90" x2="112" y2="102" />
    
    <!-- Additional connections -->
    <line x1="60" y1="78" x2="60" y2="102" opacity="0.6" />
    <line x1="120" y1="78" x2="120" y2="102" opacity="0.6" />
  </g>
  
  <!-- Subtle glow effect -->
  <circle cx="90" cy="90" r="50" fill="url(#glow)" fill-opacity="0.3" />
  
  <!-- Definitions -->
  <defs>
    <radialGradient id="glow" cx="0.5" cy="0.5" r="0.5" fx="0.5" fy="0.5">
      <stop offset="0%" stop-color="#00B2C9" stop-opacity="0.8" />
      <stop offset="100%" stop-color="#2E1A47" stop-opacity="0" />
    </radialGradient>
  </defs>
</svg>
