<?xml version="1.0" encoding="UTF-8" standalone="no"?>
<svg width="200" height="200" viewBox="0 0 200 200" fill="none" xmlns="http://www.w3.org/2000/svg">
  <!-- Gradient definitions -->
  <defs>
    <linearGradient id="bgGradient" x1="0%" y1="0%" x2="100%" y2="100%">
      <stop offset="0%" stop-color="#0A1A2F" /> <!-- Deep Blue-Black -->
      <stop offset="100%" stop-color="#0D1117" /> <!-- Dark Obsidian -->
    </linearGradient>
    <linearGradient id="accentGradient" x1="0%" y1="0%" x2="100%" y2="100%">
      <stop offset="0%" stop-color="#00E5FF" /> <!-- Electric Teal -->
      <stop offset="100%" stop-color="#00B2C9" /> <!-- Darker Teal -->
    </linearGradient>
    <linearGradient id="circuitGradient" x1="0%" y1="0%" x2="100%" y2="100%">
      <stop offset="0%" stop-color="#FFD700" stop-opacity="0.8" /> <!-- Cyber-Yellow -->
      <stop offset="100%" stop-color="#FFA500" stop-opacity="0.8" /> <!-- Amber -->
    </linearGradient>
    <filter id="glow" x="-50%" y="-50%" width="200%" height="200%">
      <feGaussianBlur stdDeviation="2" result="blur" />
      <feComposite in="SourceGraphic" in2="blur" operator="over" />
    </filter>
  </defs>
  
  <!-- Background shape - hexagon with rounded corners -->
  <path d="M100 20C103.978 20 107.794 21.5964 110.607 24.3934L165.607 79.3934C168.404 82.1905 170 86.0067 170 90V110C170 113.993 168.404 117.81 165.607 120.607L110.607 175.607C107.794 178.404 103.978 180 100 180H80C76.0218 180 72.2064 178.404 69.3934 175.607L34.3934 140.607C31.5964 137.81 30 133.993 30 130V70C30 66.0067 31.5964 62.1905 34.3934 59.3934L69.3934 24.3934C72.2064 21.5964 76.0218 20 80 20H100Z" fill="url(#bgGradient)" stroke="url(#accentGradient)" stroke-width="2"/>
  
  <!-- Circuit board pattern -->
  <g stroke="#00E5FF" stroke-width="1" opacity="0.2">
    <!-- Horizontal lines -->
    <line x1="40" y1="60" x2="160" y2="60" />
    <line x1="40" y1="100" x2="160" y2="100" />
    <line x1="40" y1="140" x2="160" y2="140" />
    
    <!-- Vertical lines -->
    <line x1="60" y1="40" x2="60" y2="160" />
    <line x1="100" y1="40" x2="100" y2="160" />
    <line x1="140" y1="40" x2="140" y2="160" />
    
    <!-- Circuit nodes -->
    <circle cx="60" cy="60" r="3" fill="#00E5FF" />
    <circle cx="60" cy="100" r="3" fill="#00E5FF" />
    <circle cx="60" cy="140" r="3" fill="#00E5FF" />
    <circle cx="100" cy="60" r="3" fill="#00E5FF" />
    <circle cx="100" cy="140" r="3" fill="#00E5FF" />
    <circle cx="140" cy="60" r="3" fill="#00E5FF" />
    <circle cx="140" cy="100" r="3" fill="#00E5FF" />
    <circle cx="140" cy="140" r="3" fill="#00E5FF" />
  </g>
  
  <!-- Central energy flow/brew element -->
  <g>
    <!-- Central energy core -->
    <circle cx="100" cy="100" r="25" fill="url(#accentGradient)" opacity="0.8" filter="url(#glow)" />
    
    <!-- Energy pathways -->
    <path d="M100 75C110 75 120 80 125 90C130 100 130 110 125 120C120 130 110 135 100 135C90 135 80 130 75 120C70 110 70 100 75 90C80 80 90 75 100 75Z" stroke="url(#accentGradient)" stroke-width="2" fill="none" />
    
    <!-- Binary/data flow -->
    <g fill="#FFFFFF" opacity="0.9">
      <text x="92" y="95" font-family="JetBrains Mono, monospace" font-size="8" fill="#FFFFFF">10</text>
      <text x="92" y="105" font-family="JetBrains Mono, monospace" font-size="8" fill="#FFFFFF">01</text>
      <text x="92" y="115" font-family="JetBrains Mono, monospace" font-size="8" fill="#FFFFFF">10</text>
    </g>
    
    <!-- Circuit connections to center -->
    <path d="M100 75L100 40" stroke="url(#accentGradient)" stroke-width="1.5" />
    <path d="M125 100L160 100" stroke="url(#accentGradient)" stroke-width="1.5" />
    <path d="M100 125L100 160" stroke="url(#accentGradient)" stroke-width="1.5" />
    <path d="M75 100L40 100" stroke="url(#accentGradient)" stroke-width="1.5" />
    
    <!-- Energy pulses -->
    <circle cx="100" cy="55" r="3" fill="#FFFFFF" opacity="0.7" filter="url(#glow)" />
    <circle cx="145" cy="100" r="3" fill="#FFFFFF" opacity="0.7" filter="url(#glow)" />
    <circle cx="100" cy="145" r="3" fill="#FFFFFF" opacity="0.7" filter="url(#glow)" />
    <circle cx="55" cy="100" r="3" fill="#FFFFFF" opacity="0.7" filter="url(#glow)" />
  </g>
  
  <!-- Stylized "B" circuit element -->
  <path d="M80 60C80 55 85 50 90 50H100C105 50 110 55 110 60C110 65 105 70 100 70H90M80 60V80C80 85 85 90 90 90H100C105 90 110 85 110 80C110 75 105 70 100 70H90" stroke="url(#circuitGradient)" stroke-width="2" fill="none" />
</svg>
