<?xml version="1.0" encoding="UTF-8" standalone="no"?>
<svg width="200" height="200" viewBox="0 0 200 200" fill="none" xmlns="http://www.w3.org/2000/svg">
  <!-- Hexagon background with gradient -->
  <defs>
    <linearGradient id="hexGradient" x1="0%" y1="0%" x2="100%" y2="100%">
      <stop offset="0%" stop-color="#4A0D67" />
      <stop offset="100%" stop-color="#2E1A47" />
    </linearGradient>
    <linearGradient id="potionGradient" x1="0%" y1="0%" x2="100%" y2="100%">
      <stop offset="0%" stop-color="#3DAA9D" />
      <stop offset="100%" stop-color="#25D5EC" />
    </linearGradient>
    <filter id="glow" x="-50%" y="-50%" width="200%" height="200%">
      <feGaussianBlur stdDeviation="3" result="blur" />
      <feComposite in="SourceGraphic" in2="blur" operator="over" />
    </filter>
  </defs>
  
  <!-- Hexagon background -->
  <path d="M100 20L173.2 60V140L100 180L26.8 140V60L100 20Z" fill="url(#hexGradient)" stroke="#3DAA9D" stroke-width="2"/>
  
  <!-- Pixel grid pattern -->
  <g opacity="0.15" stroke="#3DAA9D" stroke-width="1">
    <line x1="40" y1="60" x2="160" y2="60" />
    <line x1="40" y1="80" x2="160" y2="80" />
    <line x1="40" y1="100" x2="160" y2="100" />
    <line x1="40" y1="120" x2="160" y2="120" />
    <line x1="40" y1="140" x2="160" y2="140" />
    
    <line x1="60" y1="40" x2="60" y2="160" />
    <line x1="80" y1="40" x2="80" y2="160" />
    <line x1="100" y1="40" x2="100" y2="160" />
    <line x1="120" y1="40" x2="120" y2="160" />
    <line x1="140" y1="40" x2="140" y2="160" />
  </g>
  
  <!-- Potion flask -->
  <path d="M85 60V90C85 110 70 120 70 140C70 155 85 170 100 170C115 170 130 155 130 140C130 120 115 110 115 90V60H85Z" fill="url(#potionGradient)" stroke="#FFFFFF" stroke-width="2" />
  
  <!-- Flask neck -->
  <rect x="85" y="50" width="30" height="15" fill="url(#potionGradient)" stroke="#FFFFFF" stroke-width="2" />
  
  <!-- Flask cap -->
  <rect x="80" y="45" width="40" height="10" rx="5" fill="#B8860B" stroke="#FFFFFF" stroke-width="2" />
  
  <!-- Bubbles in the potion -->
  <circle cx="90" cy="120" r="5" fill="#FFFFFF" opacity="0.7" filter="url(#glow)" />
  <circle cx="105" cy="135" r="7" fill="#FFFFFF" opacity="0.7" filter="url(#glow)" />
  <circle cx="95" cy="150" r="4" fill="#FFFFFF" opacity="0.7" filter="url(#glow)" />
  <circle cx="115" cy="125" r="3" fill="#FFFFFF" opacity="0.7" filter="url(#glow)" />
  
  <!-- Pixel "P" in the potion -->
  <g fill="#FFFFFF" opacity="0.9">
    <rect x="90" y="100" width="5" height="5" />
    <rect x="95" y="100" width="5" height="5" />
    <rect x="100" y="100" width="5" height="5" />
    <rect x="90" y="105" width="5" height="5" />
    <rect x="100" y="105" width="5" height="5" />
    <rect x="90" y="110" width="5" height="5" />
    <rect x="95" y="110" width="5" height="5" />
    <rect x="100" y="110" width="5" height="5" />
    <rect x="90" y="115" width="5" height="5" />
    <rect x="90" y="120" width="5" height="5" />
  </g>
</svg>
